STARTFONT 2.1
FONT -FontForge-Permanent Marker-Book-R-Normal--12-120-72-72-P-69-ISO10646-1
SIZE 12 72 72
FONTBOUNDINGBOX 18 17 -3 -4
COMMENT "Generated by fontforge, http://fontforge.sourceforge.net"
COMMENT "Copyright (c) 2010 by Font Diner, Inc. All rights reserved."
STARTPROPERTIES 39
FOUNDRY "FontForge"
FAMILY_NAME "Permanent Marker"
WEIGHT_NAME "Book"
SLANT "R"
SETWIDTH_NAME "Normal"
ADD_STYLE_NAME ""
PIXEL_SIZE 12
POINT_SIZE 120
RESOLUTION_X 72
RESOLUTION_Y 72
SPACING "P"
AVERAGE_WIDTH 69
CHARSET_REGISTRY "ISO10646"
CHARSET_ENCODING "1"
FONTNAME_REGISTRY ""
CHARSET_COLLECTIONS "ISO10646-1"
FONT_NAME "PermanentMarker-Regular"
FACE_NAME "Permanent Marker Regular"
COPYRIGHT "Copyright (c) 2010 by Font Diner, Inc. All rights reserved."
FONT_VERSION "1.001"
FONT_ASCENT 10
FONT_DESCENT 2
UNDERLINE_POSITION -1
UNDERLINE_THICKNESS 1
X_HEIGHT 6
CAP_HEIGHT 8
RAW_ASCENT 799
RAW_DESCENT 200
NORM_SPACE 4
RELATIVE_WEIGHT 40
RELATIVE_SETWIDTH 50
SUPERSCRIPT_X 0
SUPERSCRIPT_Y 5
SUPERSCRIPT_SIZE 7
SUBSCRIPT_X 0
SUBSCRIPT_Y 1
SUBSCRIPT_SIZE 7
AVG_LOWERCASE_WIDTH 69
AVG_UPPERCASE_WIDTH 80
ENDPROPERTIES
CHARS 230
STARTCHAR space
ENCODING 32
SWIDTH 370 0
DWIDTH 4 0
BBX 1 1 0 0
BITMAP
00
ENDCHAR
STARTCHAR exclam
ENCODING 33
SWIDTH 260 0
DWIDTH 3 0
BBX 3 9 0 0
BITMAP
20
20
60
60
60
40
00
C0
C0
ENDCHAR
STARTCHAR quotedbl
ENCODING 34
SWIDTH 492 0
DWIDTH 6 0
BBX 5 6 1 3
BITMAP
48
78
D8
D8
F0
90
ENDCHAR
STARTCHAR numbersign
ENCODING 35
SWIDTH 703 0
DWIDTH 8 0
BBX 9 9 0 0
BITMAP
1200
1B00
1A00
7F80
3600
7F00
FE00
6C00
6800
ENDCHAR
STARTCHAR dollar
ENCODING 36
SWIDTH 493 0
DWIDTH 6 0
BBX 7 9 0 0
BITMAP
08
18
3E
E0
70
08
38
70
20
ENDCHAR
STARTCHAR percent
ENCODING 37
SWIDTH 643 0
DWIDTH 8 0
BBX 8 9 0 0
BITMAP
20
33
56
7C
18
34
6E
4E
CC
ENDCHAR
STARTCHAR ampersand
ENCODING 38
SWIDTH 599 0
DWIDTH 7 0
BBX 7 7 0 0
BITMAP
08
18
78
FE
78
30
10
ENDCHAR
STARTCHAR quotesingle
ENCODING 39
SWIDTH 265 0
DWIDTH 3 0
BBX 3 6 1 3
BITMAP
40
60
C0
C0
C0
80
ENDCHAR
STARTCHAR parenleft
ENCODING 40
SWIDTH 361 0
DWIDTH 4 0
BBX 6 12 0 -2
BITMAP
0C
1C
38
30
60
60
40
C0
C0
40
60
20
ENDCHAR
STARTCHAR parenright
ENCODING 41
SWIDTH 361 0
DWIDTH 4 0
BBX 5 12 -1 -2
BITMAP
30
10
18
18
18
18
10
30
30
60
C0
80
ENDCHAR
STARTCHAR asterisk
ENCODING 42
SWIDTH 673 0
DWIDTH 8 0
BBX 7 6 1 3
BITMAP
24
7C
3E
FE
38
6C
ENDCHAR
STARTCHAR plus
ENCODING 43
SWIDTH 579 0
DWIDTH 7 0
BBX 6 6 0 0
BITMAP
10
30
FC
F8
30
20
ENDCHAR
STARTCHAR comma
ENCODING 44
SWIDTH 204 0
DWIDTH 2 0
BBX 2 4 -1 -2
BITMAP
40
40
C0
C0
ENDCHAR
STARTCHAR hyphen
ENCODING 45
SWIDTH 609 0
DWIDTH 7 0
BBX 6 2 0 2
BITMAP
FC
78
ENDCHAR
STARTCHAR period
ENCODING 46
SWIDTH 228 0
DWIDTH 3 0
BBX 2 2 0 0
BITMAP
C0
C0
ENDCHAR
STARTCHAR slash
ENCODING 47
SWIDTH 401 0
DWIDTH 5 0
BBX 6 9 0 0
BITMAP
04
0C
18
18
30
60
C0
80
80
ENDCHAR
STARTCHAR zero
ENCODING 48
SWIDTH 686 0
DWIDTH 8 0
BBX 8 9 0 0
BITMAP
0C
1E
3C
76
62
E3
C7
FE
7C
ENDCHAR
STARTCHAR one
ENCODING 49
SWIDTH 322 0
DWIDTH 4 0
BBX 3 9 0 0
BITMAP
40
60
60
60
60
60
60
C0
C0
ENDCHAR
STARTCHAR two
ENCODING 50
SWIDTH 650 0
DWIDTH 8 0
BBX 8 9 1 0
BITMAP
70
F8
CC
1C
78
70
CE
FF
F8
ENDCHAR
STARTCHAR three
ENCODING 51
SWIDTH 561 0
DWIDTH 7 0
BBX 7 9 0 0
BITMAP
1C
FE
FC
78
78
3C
0C
FC
F0
ENDCHAR
STARTCHAR four
ENCODING 52
SWIDTH 582 0
DWIDTH 7 0
BBX 6 9 1 0
BITMAP
10
98
98
9C
FC
70
30
20
30
ENDCHAR
STARTCHAR five
ENCODING 53
SWIDTH 580 0
DWIDTH 7 0
BBX 7 9 1 0
BITMAP
20
7E
FE
E0
F0
30
18
F8
F0
ENDCHAR
STARTCHAR six
ENCODING 54
SWIDTH 500 0
DWIDTH 6 0
BBX 6 9 0 0
BITMAP
10
38
70
60
48
F8
FC
F8
F0
ENDCHAR
STARTCHAR seven
ENCODING 55
SWIDTH 576 0
DWIDTH 7 0
BBX 8 9 0 0
BITMAP
70
F8
BC
0C
1E
7F
78
30
30
ENDCHAR
STARTCHAR eight
ENCODING 56
SWIDTH 537 0
DWIDTH 6 0
BBX 6 9 1 0
BITMAP
68
FC
FC
FC
F0
E0
B0
F0
70
ENDCHAR
STARTCHAR nine
ENCODING 57
SWIDTH 529 0
DWIDTH 6 0
BBX 6 9 0 0
BITMAP
18
3C
6C
FC
7C
08
08
18
18
ENDCHAR
STARTCHAR colon
ENCODING 58
SWIDTH 241 0
DWIDTH 3 0
BBX 2 5 0 0
BITMAP
C0
40
00
C0
C0
ENDCHAR
STARTCHAR semicolon
ENCODING 59
SWIDTH 245 0
DWIDTH 3 0
BBX 3 7 -1 -2
BITMAP
60
20
00
40
60
60
C0
ENDCHAR
STARTCHAR less
ENCODING 60
SWIDTH 625 0
DWIDTH 8 0
BBX 7 6 0 0
BITMAP
02
1E
F8
F0
3C
04
ENDCHAR
STARTCHAR equal
ENCODING 61
SWIDTH 586 0
DWIDTH 7 0
BBX 7 4 0 1
BITMAP
7E
00
FC
F0
ENDCHAR
STARTCHAR greater
ENCODING 62
SWIDTH 634 0
DWIDTH 8 0
BBX 7 6 0 0
BITMAP
40
78
1E
3E
E0
80
ENDCHAR
STARTCHAR question
ENCODING 63
SWIDTH 556 0
DWIDTH 7 0
BBX 6 9 1 0
BITMAP
78
FC
8C
1C
78
60
00
80
C0
ENDCHAR
STARTCHAR at
ENCODING 64
SWIDTH 732 0
DWIDTH 9 0
BBX 9 9 0 0
BITMAP
0C00
0E00
1B00
6500
DD80
F500
9F00
C000
7E00
ENDCHAR
STARTCHAR A
ENCODING 65
SWIDTH 702 0
DWIDTH 8 0
BBX 8 9 0 0
BITMAP
08
0C
3C
36
76
7F
FE
C7
C6
ENDCHAR
STARTCHAR B
ENCODING 66
SWIDTH 686 0
DWIDTH 8 0
BBX 8 9 0 0
BITMAP
1C
FE
E7
3E
3C
72
67
7E
7C
ENDCHAR
STARTCHAR C
ENCODING 67
SWIDTH 611 0
DWIDTH 7 0
BBX 7 9 0 0
BITMAP
04
1E
3E
70
E0
C0
C0
7E
3C
ENDCHAR
STARTCHAR D
ENCODING 68
SWIDTH 588 0
DWIDTH 7 0
BBX 7 9 0 0
BITMAP
40
70
78
44
46
4E
FC
F8
E0
ENDCHAR
STARTCHAR E
ENCODING 69
SWIDTH 626 0
DWIDTH 8 0
BBX 8 9 0 0
BITMAP
02
7F
7C
60
7C
78
C0
FE
7C
ENDCHAR
STARTCHAR F
ENCODING 70
SWIDTH 575 0
DWIDTH 7 0
BBX 9 9 0 0
BITMAP
0700
7F80
7000
3000
6C00
FE00
E000
C000
C000
ENDCHAR
STARTCHAR G
ENCODING 71
SWIDTH 789 0
DWIDTH 9 0
BBX 10 9 0 0
BITMAP
0400
0F00
1E00
3800
7300
E3C0
C7C0
FF80
7C00
ENDCHAR
STARTCHAR H
ENCODING 72
SWIDTH 695 0
DWIDTH 8 0
BBX 8 9 0 0
BITMAP
22
63
63
63
63
7F
FE
E6
C6
ENDCHAR
STARTCHAR I
ENCODING 73
SWIDTH 515 0
DWIDTH 6 0
BBX 8 9 0 0
BITMAP
1E
7F
38
18
18
30
30
F8
F8
ENDCHAR
STARTCHAR J
ENCODING 74
SWIDTH 668 0
DWIDTH 8 0
BBX 10 9 0 0
BITMAP
0700
7FC0
7600
0600
0C00
0C00
0C00
F800
F000
ENDCHAR
STARTCHAR K
ENCODING 75
SWIDTH 776 0
DWIDTH 9 0
BBX 10 9 0 0
BITMAP
1000
3180
3780
7E00
7C00
7800
FF80
E7C0
4000
ENDCHAR
STARTCHAR L
ENCODING 76
SWIDTH 632 0
DWIDTH 8 0
BBX 7 9 0 0
BITMAP
20
30
70
60
60
E0
C0
FE
7E
ENDCHAR
STARTCHAR M
ENCODING 77
SWIDTH 973 0
DWIDTH 12 0
BBX 12 9 0 0
BITMAP
1040
3860
3CF0
7FE0
7FE0
6F60
E060
C060
C040
ENDCHAR
STARTCHAR N
ENCODING 78
SWIDTH 684 0
DWIDTH 8 0
BBX 9 9 0 0
BITMAP
1200
3B80
3B00
7300
7300
F700
FE00
CE00
4C00
ENDCHAR
STARTCHAR O
ENCODING 79
SWIDTH 744 0
DWIDTH 9 0
BBX 9 9 0 0
BITMAP
0400
0E00
1E00
3B00
6300
E100
C780
FF00
7C00
ENDCHAR
STARTCHAR P
ENCODING 80
SWIDTH 639 0
DWIDTH 8 0
BBX 8 9 0 0
BITMAP
1E
3F
3F
67
7F
FC
60
60
C0
ENDCHAR
STARTCHAR Q
ENCODING 81
SWIDTH 744 0
DWIDTH 9 0
BBX 9 10 0 -1
BITMAP
0C00
0E00
1F00
3900
7180
EF80
C700
FF00
7B00
0100
ENDCHAR
STARTCHAR R
ENCODING 82
SWIDTH 646 0
DWIDTH 8 0
BBX 8 9 0 0
BITMAP
08
1C
7E
66
7E
FC
F0
FE
CF
ENDCHAR
STARTCHAR S
ENCODING 83
SWIDTH 576 0
DWIDTH 7 0
BBX 8 9 0 0
BITMAP
0E
7F
F8
F8
78
04
1C
78
70
ENDCHAR
STARTCHAR T
ENCODING 84
SWIDTH 607 0
DWIDTH 7 0
BBX 9 9 0 0
BITMAP
0F80
FF80
F800
1800
3800
3000
3000
2000
3000
ENDCHAR
STARTCHAR U
ENCODING 85
SWIDTH 695 0
DWIDTH 8 0
BBX 8 9 1 0
BITMAP
02
82
C3
C6
C6
CE
FC
F8
60
ENDCHAR
STARTCHAR V
ENCODING 86
SWIDTH 583 0
DWIDTH 7 0
BBX 7 9 1 0
BITMAP
86
86
CC
DC
F8
F0
F0
E0
60
ENDCHAR
STARTCHAR W
ENCODING 87
SWIDTH 994 0
DWIDTH 12 0
BBX 13 9 0 0
BITMAP
2010
3230
6338
6730
6770
EF60
DFE0
79C0
7180
ENDCHAR
STARTCHAR X
ENCODING 88
SWIDTH 623 0
DWIDTH 7 0
BBX 8 9 0 0
BITMAP
40
63
7F
3C
38
7C
EC
CE
84
ENDCHAR
STARTCHAR Y
ENCODING 89
SWIDTH 493 0
DWIDTH 6 0
BBX 7 9 0 0
BITMAP
46
6E
6C
78
78
30
70
60
E0
ENDCHAR
STARTCHAR Z
ENCODING 90
SWIDTH 664 0
DWIDTH 8 0
BBX 8 9 0 0
BITMAP
3E
3F
27
0E
3C
70
E2
FE
FC
ENDCHAR
STARTCHAR bracketleft
ENCODING 91
SWIDTH 387 0
DWIDTH 5 0
BBX 9 13 0 -2
BITMAP
1F00
3F80
3000
3000
3000
6000
6000
6000
6000
C000
C000
F800
F000
ENDCHAR
STARTCHAR backslash
ENCODING 92
SWIDTH 352 0
DWIDTH 4 0
BBX 3 9 1 0
BITMAP
80
80
80
C0
C0
40
40
40
60
ENDCHAR
STARTCHAR bracketright
ENCODING 93
SWIDTH 403 0
DWIDTH 5 0
BBX 8 13 -3 -2
BITMAP
3F
1F
03
02
06
06
06
04
0C
0C
0C
F8
F0
ENDCHAR
STARTCHAR asciicircum
ENCODING 94
SWIDTH 518 0
DWIDTH 6 0
BBX 6 7 0 2
BITMAP
18
18
38
38
68
C8
8C
ENDCHAR
STARTCHAR underscore
ENCODING 95
SWIDTH 708 0
DWIDTH 9 0
BBX 9 1 -1 0
BITMAP
FF80
ENDCHAR
STARTCHAR grave
ENCODING 96
SWIDTH 754 0
DWIDTH 9 0
BBX 4 4 3 5
BITMAP
40
E0
30
10
ENDCHAR
STARTCHAR a
ENCODING 97
SWIDTH 581 0
DWIDTH 7 0
BBX 7 7 0 0
BITMAP
18
38
78
6C
FE
F4
8C
ENDCHAR
STARTCHAR b
ENCODING 98
SWIDTH 573 0
DWIDTH 7 0
BBX 7 7 0 0
BITMAP
FC
CC
7C
78
64
DE
78
ENDCHAR
STARTCHAR c
ENCODING 99
SWIDTH 513 0
DWIDTH 6 0
BBX 6 7 0 0
BITMAP
1C
3C
70
C0
80
F8
7C
ENDCHAR
STARTCHAR d
ENCODING 100
SWIDTH 497 0
DWIDTH 6 0
BBX 6 7 0 0
BITMAP
60
70
48
4C
5C
F8
E0
ENDCHAR
STARTCHAR e
ENCODING 101
SWIDTH 521 0
DWIDTH 6 0
BBX 7 7 0 0
BITMAP
3E
7C
60
78
C0
FC
FC
ENDCHAR
STARTCHAR f
ENCODING 102
SWIDTH 455 0
DWIDTH 5 0
BBX 7 7 0 0
BITMAP
3E
F0
60
F8
F8
C0
C0
ENDCHAR
STARTCHAR g
ENCODING 103
SWIDTH 652 0
DWIDTH 8 0
BBX 8 7 0 0
BITMAP
0C
3C
70
E6
C7
FF
78
ENDCHAR
STARTCHAR h
ENCODING 104
SWIDTH 582 0
DWIDTH 7 0
BBX 7 7 0 0
BITMAP
44
66
66
4E
FC
EC
CC
ENDCHAR
STARTCHAR i
ENCODING 105
SWIDTH 320 0
DWIDTH 4 0
BBX 2 7 1 0
BITMAP
40
C0
C0
C0
80
80
C0
ENDCHAR
STARTCHAR j
ENCODING 106
SWIDTH 534 0
DWIDTH 6 0
BBX 8 7 0 0
BITMAP
7F
7F
0C
08
18
F8
F0
ENDCHAR
STARTCHAR k
ENCODING 107
SWIDTH 645 0
DWIDTH 8 0
BBX 8 7 0 0
BITMAP
32
6F
7C
78
F8
EF
C2
ENDCHAR
STARTCHAR l
ENCODING 108
SWIDTH 533 0
DWIDTH 6 0
BBX 6 7 0 0
BITMAP
20
60
60
40
C0
FC
FC
ENDCHAR
STARTCHAR m
ENCODING 109
SWIDTH 814 0
DWIDTH 10 0
BBX 10 7 0 0
BITMAP
3080
39C0
7F80
7E80
DD80
C180
C180
ENDCHAR
STARTCHAR n
ENCODING 110
SWIDTH 564 0
DWIDTH 7 0
BBX 7 7 0 0
BITMAP
36
36
76
74
FC
DC
C8
ENDCHAR
STARTCHAR o
ENCODING 111
SWIDTH 628 0
DWIDTH 8 0
BBX 7 7 0 0
BITMAP
1C
3C
74
66
C6
FE
7C
ENDCHAR
STARTCHAR p
ENCODING 112
SWIDTH 524 0
DWIDTH 6 0
BBX 7 7 0 0
BITMAP
3C
3E
6E
FC
70
40
C0
ENDCHAR
STARTCHAR q
ENCODING 113
SWIDTH 625 0
DWIDTH 8 0
BBX 7 8 0 -1
BITMAP
0C
1C
76
F2
CE
BC
FE
04
ENDCHAR
STARTCHAR r
ENCODING 114
SWIDTH 541 0
DWIDTH 7 0
BBX 7 7 0 0
BITMAP
18
3C
6C
7C
F0
F0
DE
ENDCHAR
STARTCHAR s
ENCODING 115
SWIDTH 463 0
DWIDTH 6 0
BBX 7 7 0 0
BITMAP
3E
FE
F0
38
08
38
70
ENDCHAR
STARTCHAR t
ENCODING 116
SWIDTH 479 0
DWIDTH 6 0
BBX 8 7 0 0
BITMAP
FF
F8
30
30
20
60
20
ENDCHAR
STARTCHAR u
ENCODING 117
SWIDTH 584 0
DWIDTH 7 0
BBX 6 7 1 0
BITMAP
04
84
CC
8C
98
F0
E0
ENDCHAR
STARTCHAR v
ENCODING 118
SWIDTH 485 0
DWIDTH 6 0
BBX 6 7 1 0
BITMAP
8C
98
D8
F0
E0
E0
40
ENDCHAR
STARTCHAR w
ENCODING 119
SWIDTH 825 0
DWIDTH 10 0
BBX 11 7 0 0
BITMAP
2440
6660
6EC0
4CC0
DD80
FF80
6300
ENDCHAR
STARTCHAR x
ENCODING 120
SWIDTH 506 0
DWIDTH 6 0
BBX 7 7 0 0
BITMAP
46
6E
38
30
78
C8
8C
ENDCHAR
STARTCHAR y
ENCODING 121
SWIDTH 400 0
DWIDTH 5 0
BBX 6 7 0 0
BITMAP
4C
58
78
70
60
60
C0
ENDCHAR
STARTCHAR z
ENCODING 122
SWIDTH 547 0
DWIDTH 7 0
BBX 7 7 0 0
BITMAP
7E
3E
1C
38
E0
DC
F8
ENDCHAR
STARTCHAR braceleft
ENCODING 123
SWIDTH 448 0
DWIDTH 5 0
BBX 10 13 0 -2
BITMAP
0F80
1FC0
1800
1800
1800
F000
E000
7000
3000
6000
6000
7C00
7800
ENDCHAR
STARTCHAR bar
ENCODING 124
SWIDTH 332 0
DWIDTH 4 0
BBX 4 9 0 0
BITMAP
10
30
30
20
60
60
40
C0
C0
ENDCHAR
STARTCHAR braceright
ENCODING 125
SWIDTH 481 0
DWIDTH 6 0
BBX 9 13 -3 -2
BITMAP
3E00
3F00
0300
0200
0600
0600
0300
0780
0C00
0C00
0800
F800
F000
ENDCHAR
STARTCHAR asciitilde
ENCODING 126
SWIDTH 581 0
DWIDTH 7 0
BBX 7 2 0 3
BITMAP
76
FC
ENDCHAR
STARTCHAR uni00A0
ENCODING 160
SWIDTH 370 0
DWIDTH 4 0
BBX 1 1 0 0
BITMAP
00
ENDCHAR
STARTCHAR exclamdown
ENCODING 161
SWIDTH 260 0
DWIDTH 3 0
BBX 3 9 0 0
BITMAP
60
60
00
40
40
C0
C0
C0
80
ENDCHAR
STARTCHAR cent
ENCODING 162
SWIDTH 488 0
DWIDTH 6 0
BBX 6 9 0 0
BITMAP
10
18
1C
70
C0
80
F8
78
60
ENDCHAR
STARTCHAR sterling
ENCODING 163
SWIDTH 586 0
DWIDTH 7 0
BBX 7 7 0 1
BITMAP
1C
3E
30
FC
60
6C
FC
ENDCHAR
STARTCHAR currency
ENCODING 164
SWIDTH 509 0
DWIDTH 6 0
BBX 6 6 0 0
BITMAP
7C
78
58
F8
F8
88
ENDCHAR
STARTCHAR yen
ENCODING 165
SWIDTH 563 0
DWIDTH 7 0
BBX 7 8 0 0
BITMAP
44
66
2C
38
FC
70
60
60
ENDCHAR
STARTCHAR brokenbar
ENCODING 166
SWIDTH 301 0
DWIDTH 4 0
BBX 4 9 0 0
BITMAP
10
30
30
20
20
40
40
C0
80
ENDCHAR
STARTCHAR section
ENCODING 167
SWIDTH 630 0
DWIDTH 8 0
BBX 7 10 0 -1
BITMAP
7E
7A
78
7C
E6
7E
3C
0E
FC
F8
ENDCHAR
STARTCHAR dieresis
ENCODING 168
SWIDTH 754 0
DWIDTH 9 0
BBX 5 2 3 7
BITMAP
90
D8
ENDCHAR
STARTCHAR copyright
ENCODING 169
SWIDTH 614 0
DWIDTH 7 0
BBX 7 8 0 1
BITMAP
08
34
4E
F2
A2
FA
4C
38
ENDCHAR
STARTCHAR ordfeminine
ENCODING 170
SWIDTH 454 0
DWIDTH 5 0
BBX 5 6 0 2
BITMAP
10
70
70
F8
D8
90
ENDCHAR
STARTCHAR guillemotleft
ENCODING 171
SWIDTH 566 0
DWIDTH 7 0
BBX 6 5 0 0
BITMAP
34
6C
D8
D8
6C
ENDCHAR
STARTCHAR logicalnot
ENCODING 172
SWIDTH 698 0
DWIDTH 8 0
BBX 8 4 0 0
BITMAP
FE
FB
06
06
ENDCHAR
STARTCHAR sfthyphen
ENCODING 173
SWIDTH 608 0
DWIDTH 7 0
BBX 6 2 0 2
BITMAP
FC
78
ENDCHAR
STARTCHAR registered
ENCODING 174
SWIDTH 624 0
DWIDTH 7 0
BBX 7 8 0 1
BITMAP
08
36
6E
56
FA
FE
4C
38
ENDCHAR
STARTCHAR macron
ENCODING 175
SWIDTH 754 0
DWIDTH 9 0
BBX 4 2 3 7
BITMAP
F0
F0
ENDCHAR
STARTCHAR degree
ENCODING 176
SWIDTH 284 0
DWIDTH 3 0
BBX 4 4 1 6
BITMAP
20
60
B0
E0
ENDCHAR
STARTCHAR plusminus
ENCODING 177
SWIDTH 559 0
DWIDTH 7 0
BBX 7 8 0 0
BITMAP
18
18
FE
7C
30
30
78
FC
ENDCHAR
STARTCHAR twosuperior
ENCODING 178
SWIDTH 386 0
DWIDTH 5 0
BBX 4 5 1 4
BITMAP
40
F0
60
F0
E0
ENDCHAR
STARTCHAR threesuperior
ENCODING 179
SWIDTH 366 0
DWIDTH 4 0
BBX 4 5 1 4
BITMAP
20
F0
60
70
E0
ENDCHAR
STARTCHAR acute
ENCODING 180
SWIDTH 754 0
DWIDTH 9 0
BBX 4 4 3 5
BITMAP
10
70
E0
40
ENDCHAR
STARTCHAR mu
ENCODING 181
SWIDTH 569 0
DWIDTH 7 0
BBX 7 8 0 -1
BITMAP
04
44
46
44
CC
F8
F0
80
ENDCHAR
STARTCHAR paragraph
ENCODING 182
SWIDTH 729 0
DWIDTH 9 0
BBX 9 9 1 0
BITMAP
1F00
FF80
FA00
DE00
FE00
3E00
3400
3C00
3600
ENDCHAR
STARTCHAR periodcentered
ENCODING 183
SWIDTH 226 0
DWIDTH 3 0
BBX 3 2 0 3
BITMAP
E0
40
ENDCHAR
STARTCHAR cedilla
ENCODING 184
SWIDTH 754 0
DWIDTH 9 0
BBX 4 5 3 -4
BITMAP
20
40
70
F0
60
ENDCHAR
STARTCHAR onesuperior
ENCODING 185
SWIDTH 206 0
DWIDTH 2 0
BBX 2 5 1 4
BITMAP
80
C0
C0
80
80
ENDCHAR
STARTCHAR ordmasculine
ENCODING 186
SWIDTH 445 0
DWIDTH 5 0
BBX 5 6 0 2
BITMAP
10
30
78
D8
F8
60
ENDCHAR
STARTCHAR guillemotright
ENCODING 187
SWIDTH 595 0
DWIDTH 7 0
BBX 6 5 0 0
BITMAP
D8
6C
24
FC
90
ENDCHAR
STARTCHAR onequarter
ENCODING 188
SWIDTH 705 0
DWIDTH 8 0
BBX 8 9 0 0
BITMAP
42
66
6C
58
52
3A
6F
C6
C6
ENDCHAR
STARTCHAR onehalf
ENCODING 189
SWIDTH 750 0
DWIDTH 9 0
BBX 8 9 0 0
BITMAP
42
66
6C
58
50
3F
67
CD
CF
ENDCHAR
STARTCHAR threequarters
ENCODING 190
SWIDTH 818 0
DWIDTH 10 0
BBX 8 9 1 0
BITMAP
E1
F3
66
EC
D9
3F
6F
C6
C6
ENDCHAR
STARTCHAR questiondown
ENCODING 191
SWIDTH 556 0
DWIDTH 7 0
BBX 7 9 -1 0
BITMAP
02
06
00
04
1C
78
E0
FE
FC
ENDCHAR
STARTCHAR Agrave
ENCODING 192
SWIDTH 702 0
DWIDTH 8 0
BBX 8 13 0 0
BITMAP
08
1C
06
02
08
0C
3C
36
76
7F
FE
C7
C6
ENDCHAR
STARTCHAR Aacute
ENCODING 193
SWIDTH 702 0
DWIDTH 8 0
BBX 8 13 0 0
BITMAP
02
06
0C
08
08
0C
3C
36
76
7F
FE
C7
C6
ENDCHAR
STARTCHAR Acircumflex
ENCODING 194
SWIDTH 702 0
DWIDTH 8 0
BBX 8 12 0 0
BITMAP
0E
1B
12
08
0C
3C
36
76
7F
FE
C7
C6
ENDCHAR
STARTCHAR Atilde
ENCODING 195
SWIDTH 702 0
DWIDTH 8 0
BBX 9 12 0 0
BITMAP
0D80
1F00
0000
0800
0C00
3C00
3600
7600
7F00
FE00
C700
C600
ENDCHAR
STARTCHAR Adieresis
ENCODING 196
SWIDTH 702 0
DWIDTH 8 0
BBX 8 12 0 0
BITMAP
13
1B
00
08
0C
3C
36
76
7F
FE
C7
C6
ENDCHAR
STARTCHAR Aring
ENCODING 197
SWIDTH 702 0
DWIDTH 8 0
BBX 8 12 0 0
BITMAP
02
06
0A
0E
0C
3C
36
76
7F
FE
C7
C6
ENDCHAR
STARTCHAR AE
ENCODING 198
SWIDTH 1153 0
DWIDTH 14 0
BBX 15 9 -1 0
BITMAP
0204
077E
1FF8
1B60
3BFC
3FF8
7FC0
E3FC
C7FC
ENDCHAR
STARTCHAR Ccedilla
ENCODING 199
SWIDTH 611 0
DWIDTH 7 0
BBX 7 13 0 -4
BITMAP
04
1E
3E
70
E0
C0
C0
7E
3C
20
38
18
70
ENDCHAR
STARTCHAR Egrave
ENCODING 200
SWIDTH 626 0
DWIDTH 8 0
BBX 8 13 0 0
BITMAP
10
18
0C
04
02
7F
7C
60
7C
78
C0
FE
7C
ENDCHAR
STARTCHAR Eacute
ENCODING 201
SWIDTH 626 0
DWIDTH 8 0
BBX 8 13 0 0
BITMAP
02
0E
1C
08
02
7F
7C
60
7C
78
C0
FE
7C
ENDCHAR
STARTCHAR Ecircumflex
ENCODING 202
SWIDTH 626 0
DWIDTH 8 0
BBX 8 12 0 0
BITMAP
0C
3E
12
02
7F
7C
60
7C
78
C0
FE
7C
ENDCHAR
STARTCHAR Edieresis
ENCODING 203
SWIDTH 626 0
DWIDTH 8 0
BBX 8 12 0 0
BITMAP
12
3B
00
02
7F
7C
60
7C
78
C0
FE
7C
ENDCHAR
STARTCHAR Igrave
ENCODING 204
SWIDTH 515 0
DWIDTH 6 0
BBX 8 13 0 0
BITMAP
10
18
0C
04
1E
7F
38
18
18
30
30
F8
F8
ENDCHAR
STARTCHAR Iacute
ENCODING 205
SWIDTH 515 0
DWIDTH 6 0
BBX 8 13 0 0
BITMAP
02
07
0C
08
1E
7F
38
18
18
30
30
F8
F8
ENDCHAR
STARTCHAR Icircumflex
ENCODING 206
SWIDTH 515 0
DWIDTH 6 0
BBX 8 12 0 0
BITMAP
0C
1E
12
1E
7F
38
18
18
30
30
F8
F8
ENDCHAR
STARTCHAR Idieresis
ENCODING 207
SWIDTH 515 0
DWIDTH 6 0
BBX 8 12 0 0
BITMAP
12
1B
00
1E
7F
38
18
18
30
30
F8
F8
ENDCHAR
STARTCHAR Eth
ENCODING 208
SWIDTH 656 0
DWIDTH 8 0
BBX 8 9 0 0
BITMAP
20
38
7C
26
F3
E7
7E
7C
60
ENDCHAR
STARTCHAR Ntilde
ENCODING 209
SWIDTH 684 0
DWIDTH 8 0
BBX 9 12 0 0
BITMAP
0F80
1F00
0000
1200
3B80
3B00
7300
7300
F700
FE00
CE00
4C00
ENDCHAR
STARTCHAR Ograve
ENCODING 210
SWIDTH 744 0
DWIDTH 9 0
BBX 9 13 0 0
BITMAP
0400
0E00
0300
0100
0400
0E00
1E00
3B00
6300
E100
C780
FF00
7C00
ENDCHAR
STARTCHAR Oacute
ENCODING 211
SWIDTH 744 0
DWIDTH 9 0
BBX 9 13 0 0
BITMAP
0200
0600
0C00
0800
0400
0E00
1E00
3B00
6300
E100
C780
FF00
7C00
ENDCHAR
STARTCHAR Ocircumflex
ENCODING 212
SWIDTH 744 0
DWIDTH 9 0
BBX 9 12 0 0
BITMAP
0600
1F00
0900
0400
0E00
1E00
3B00
6300
E100
C780
FF00
7C00
ENDCHAR
STARTCHAR Otilde
ENCODING 213
SWIDTH 744 0
DWIDTH 9 0
BBX 9 12 0 0
BITMAP
0F80
1F00
0000
0400
0E00
1E00
3B00
6300
E100
C780
FF00
7C00
ENDCHAR
STARTCHAR Odieresis
ENCODING 214
SWIDTH 744 0
DWIDTH 9 0
BBX 9 12 0 0
BITMAP
0900
1B00
0000
0400
0E00
1E00
3B00
6300
E100
C780
FF00
7C00
ENDCHAR
STARTCHAR multiply
ENCODING 215
SWIDTH 490 0
DWIDTH 6 0
BBX 6 6 0 0
BITMAP
4C
78
30
70
D8
88
ENDCHAR
STARTCHAR Oslash
ENCODING 216
SWIDTH 744 0
DWIDTH 9 0
BBX 9 11 0 -2
BITMAP
0500
0F00
1F00
3F00
6F00
FD00
DF80
FF00
7C00
6000
2000
ENDCHAR
STARTCHAR Ugrave
ENCODING 217
SWIDTH 695 0
DWIDTH 8 0
BBX 8 12 1 0
BITMAP
20
70
18
0A
82
C3
C6
C6
CE
FC
F8
60
ENDCHAR
STARTCHAR Uacute
ENCODING 218
SWIDTH 695 0
DWIDTH 8 0
BBX 8 13 1 0
BITMAP
04
0E
18
10
02
82
C3
C6
C6
CE
FC
F8
60
ENDCHAR
STARTCHAR Ucircumflex
ENCODING 219
SWIDTH 695 0
DWIDTH 8 0
BBX 8 12 1 0
BITMAP
18
3C
24
02
82
C3
C6
C6
CE
FC
F8
60
ENDCHAR
STARTCHAR Udieresis
ENCODING 220
SWIDTH 695 0
DWIDTH 8 0
BBX 8 12 1 0
BITMAP
24
36
00
02
82
C3
C6
C6
CE
FC
F8
60
ENDCHAR
STARTCHAR Yacute
ENCODING 221
SWIDTH 493 0
DWIDTH 6 0
BBX 7 13 0 0
BITMAP
04
0E
1C
08
46
6E
6C
78
78
30
70
60
E0
ENDCHAR
STARTCHAR Thorn
ENCODING 222
SWIDTH 680 0
DWIDTH 8 0
BBX 8 9 0 0
BITMAP
20
60
7E
7F
67
FE
FC
E0
40
ENDCHAR
STARTCHAR germandbls
ENCODING 223
SWIDTH 931 0
DWIDTH 11 0
BBX 13 7 0 0
BITMAP
3EF0
FFF8
F3C0
38C0
0860
39C0
7380
ENDCHAR
STARTCHAR agrave
ENCODING 224
SWIDTH 581 0
DWIDTH 7 0
BBX 7 11 0 0
BITMAP
10
18
0C
04
18
38
78
6C
FE
F4
8C
ENDCHAR
STARTCHAR aacute
ENCODING 225
SWIDTH 581 0
DWIDTH 7 0
BBX 7 11 0 0
BITMAP
04
0C
18
10
18
38
78
6C
FE
F4
8C
ENDCHAR
STARTCHAR acircumflex
ENCODING 226
SWIDTH 581 0
DWIDTH 7 0
BBX 7 10 0 0
BITMAP
1C
36
24
18
38
78
6C
FE
F4
8C
ENDCHAR
STARTCHAR atilde
ENCODING 227
SWIDTH 581 0
DWIDTH 7 0
BBX 8 10 0 0
BITMAP
1B
3E
00
18
38
78
6C
FE
F4
8C
ENDCHAR
STARTCHAR adieresis
ENCODING 228
SWIDTH 581 0
DWIDTH 7 0
BBX 7 10 0 0
BITMAP
36
36
00
18
38
78
6C
FE
F4
8C
ENDCHAR
STARTCHAR aring
ENCODING 229
SWIDTH 581 0
DWIDTH 7 0
BBX 7 10 0 0
BITMAP
04
1C
14
1C
38
78
6C
FE
F4
8C
ENDCHAR
STARTCHAR ae
ENCODING 230
SWIDTH 948 0
DWIDTH 11 0
BBX 13 7 -1 0
BITMAP
04F8
1DF0
3D80
37F0
7F00
57F0
CDF0
ENDCHAR
STARTCHAR ccedilla
ENCODING 231
SWIDTH 513 0
DWIDTH 6 0
BBX 6 10 0 -3
BITMAP
1C
3C
70
C0
80
F8
7C
20
30
78
ENDCHAR
STARTCHAR egrave
ENCODING 232
SWIDTH 521 0
DWIDTH 6 0
BBX 7 11 0 0
BITMAP
20
70
18
08
3E
7C
60
78
C0
FC
FC
ENDCHAR
STARTCHAR eacute
ENCODING 233
SWIDTH 521 0
DWIDTH 6 0
BBX 7 11 0 0
BITMAP
04
1C
18
10
3E
7C
60
78
C0
FC
FC
ENDCHAR
STARTCHAR ecircumflex
ENCODING 234
SWIDTH 521 0
DWIDTH 6 0
BBX 7 10 0 0
BITMAP
1C
36
22
3E
7C
60
78
C0
FC
FC
ENDCHAR
STARTCHAR edieresis
ENCODING 235
SWIDTH 521 0
DWIDTH 6 0
BBX 7 10 0 0
BITMAP
36
36
00
3E
7C
60
78
C0
FC
FC
ENDCHAR
STARTCHAR igrave
ENCODING 236
SWIDTH 320 0
DWIDTH 4 0
BBX 4 11 1 0
BITMAP
80
E0
70
20
40
C0
C0
C0
80
80
C0
ENDCHAR
STARTCHAR iacute
ENCODING 237
SWIDTH 320 0
DWIDTH 4 0
BBX 5 12 1 0
BITMAP
08
18
30
20
00
40
C0
C0
C0
80
80
C0
ENDCHAR
STARTCHAR icircumflex
ENCODING 238
SWIDTH 320 0
DWIDTH 4 0
BBX 4 11 1 0
BITMAP
60
F0
90
00
40
C0
C0
C0
80
80
C0
ENDCHAR
STARTCHAR idieresis
ENCODING 239
SWIDTH 320 0
DWIDTH 4 0
BBX 6 10 0 0
BITMAP
48
CC
00
20
60
60
60
40
40
60
ENDCHAR
STARTCHAR eth
ENCODING 240
SWIDTH 541 0
DWIDTH 7 0
BBX 6 7 0 0
BITMAP
60
78
6C
F4
5C
78
60
ENDCHAR
STARTCHAR ntilde
ENCODING 241
SWIDTH 564 0
DWIDTH 7 0
BBX 8 10 0 0
BITMAP
1D
17
00
36
36
76
74
FC
DC
C8
ENDCHAR
STARTCHAR ograve
ENCODING 242
SWIDTH 628 0
DWIDTH 8 0
BBX 7 11 0 0
BITMAP
08
1C
0E
02
1C
3C
74
66
C6
FE
7C
ENDCHAR
STARTCHAR oacute
ENCODING 243
SWIDTH 628 0
DWIDTH 8 0
BBX 7 11 0 0
BITMAP
04
0C
18
10
1C
3C
74
66
C6
FE
7C
ENDCHAR
STARTCHAR ocircumflex
ENCODING 244
SWIDTH 628 0
DWIDTH 8 0
BBX 7 11 0 0
BITMAP
0C
1E
12
00
1C
3C
74
66
C6
FE
7C
ENDCHAR
STARTCHAR otilde
ENCODING 245
SWIDTH 628 0
DWIDTH 8 0
BBX 8 10 0 0
BITMAP
1D
17
00
1C
3C
74
66
C6
FE
7C
ENDCHAR
STARTCHAR odieresis
ENCODING 246
SWIDTH 628 0
DWIDTH 8 0
BBX 8 10 0 0
BITMAP
12
1B
00
1C
3C
74
66
C6
FE
7C
ENDCHAR
STARTCHAR divide
ENCODING 247
SWIDTH 559 0
DWIDTH 7 0
BBX 6 7 0 0
BITMAP
10
18
00
FC
C0
30
30
ENDCHAR
STARTCHAR oslash
ENCODING 248
SWIDTH 632 0
DWIDTH 8 0
BBX 7 8 0 -1
BITMAP
0E
3E
7C
7E
DE
FE
7C
60
ENDCHAR
STARTCHAR ugrave
ENCODING 249
SWIDTH 584 0
DWIDTH 7 0
BBX 6 11 1 0
BITMAP
20
70
38
08
04
84
CC
8C
98
F0
E0
ENDCHAR
STARTCHAR uacute
ENCODING 250
SWIDTH 584 0
DWIDTH 7 0
BBX 6 11 1 0
BITMAP
08
1C
38
10
04
84
CC
8C
98
F0
E0
ENDCHAR
STARTCHAR ucircumflex
ENCODING 251
SWIDTH 584 0
DWIDTH 7 0
BBX 6 11 1 0
BITMAP
38
6C
44
00
04
84
CC
8C
98
F0
E0
ENDCHAR
STARTCHAR udieresis
ENCODING 252
SWIDTH 584 0
DWIDTH 7 0
BBX 6 10 1 0
BITMAP
6C
6C
00
04
84
CC
8C
98
F0
E0
ENDCHAR
STARTCHAR yacute
ENCODING 253
SWIDTH 400 0
DWIDTH 5 0
BBX 7 12 0 0
BITMAP
04
0E
18
10
00
4C
58
78
70
60
60
C0
ENDCHAR
STARTCHAR thorn
ENCODING 254
SWIDTH 579 0
DWIDTH 7 0
BBX 7 7 0 0
BITMAP
60
7C
66
CE
FC
E0
40
ENDCHAR
STARTCHAR ydieresis
ENCODING 255
SWIDTH 400 0
DWIDTH 5 0
BBX 7 11 0 0
BITMAP
24
36
00
00
4C
58
78
70
60
60
C0
ENDCHAR
STARTCHAR dotlessi
ENCODING 305
SWIDTH 320 0
DWIDTH 4 0
BBX 2 7 1 0
BITMAP
40
C0
C0
C0
80
80
C0
ENDCHAR
STARTCHAR Lslash
ENCODING 321
SWIDTH 632 0
DWIDTH 8 0
BBX 8 9 -1 0
BITMAP
10
18
38
3C
F8
F0
60
7F
3F
ENDCHAR
STARTCHAR lslash
ENCODING 322
SWIDTH 533 0
DWIDTH 6 0
BBX 7 7 -1 0
BITMAP
10
30
38
F0
E0
7E
7E
ENDCHAR
STARTCHAR OE
ENCODING 338
SWIDTH 1212 0
DWIDTH 15 0
BBX 15 9 0 0
BITMAP
0404
0EFE
1EF8
3BC0
63FC
E1F0
C780
FFFC
7CF8
ENDCHAR
STARTCHAR oe
ENCODING 339
SWIDTH 1010 0
DWIDTH 12 0
BBX 12 7 0 0
BITMAP
1CF0
3DE0
7580
67E0
C700
FFF0
7FE0
ENDCHAR
STARTCHAR Scaron
ENCODING 352
SWIDTH 576 0
DWIDTH 7 0
BBX 8 12 0 0
BITMAP
12
1E
0C
0E
7F
F8
F8
78
04
1C
78
70
ENDCHAR
STARTCHAR scaron
ENCODING 353
SWIDTH 463 0
DWIDTH 6 0
BBX 7 11 0 0
BITMAP
64
3C
18
00
3E
FE
F0
38
08
38
70
ENDCHAR
STARTCHAR Ydieresis
ENCODING 376
SWIDTH 493 0
DWIDTH 6 0
BBX 7 12 0 0
BITMAP
36
36
00
46
6E
6C
78
78
30
70
60
E0
ENDCHAR
STARTCHAR Zcaron
ENCODING 381
SWIDTH 664 0
DWIDTH 8 0
BBX 9 13 0 0
BITMAP
0980
0F00
0600
0000
3E00
3F00
2700
0E00
3C00
7000
E200
FE00
FC00
ENDCHAR
STARTCHAR zcaron
ENCODING 382
SWIDTH 547 0
DWIDTH 7 0
BBX 7 11 0 0
BITMAP
12
1E
0C
00
7E
3E
1C
38
E0
DC
F8
ENDCHAR
STARTCHAR circumflex
ENCODING 710
SWIDTH 754 0
DWIDTH 9 0
BBX 5 3 3 6
BITMAP
70
D8
90
ENDCHAR
STARTCHAR caron
ENCODING 711
SWIDTH 754 0
DWIDTH 9 0
BBX 5 3 3 6
BITMAP
98
F0
60
ENDCHAR
STARTCHAR breve
ENCODING 728
SWIDTH 754 0
DWIDTH 9 0
BBX 5 2 3 7
BITMAP
98
F0
ENDCHAR
STARTCHAR dotaccent
ENCODING 729
SWIDTH 754 0
DWIDTH 9 0
BBX 2 2 4 7
BITMAP
C0
C0
ENDCHAR
STARTCHAR ring
ENCODING 730
SWIDTH 754 0
DWIDTH 9 0
BBX 4 4 3 6
BITMAP
20
70
50
E0
ENDCHAR
STARTCHAR ogonek
ENCODING 731
SWIDTH 754 0
DWIDTH 9 0
BBX 4 3 4 -3
BITMAP
80
80
F0
ENDCHAR
STARTCHAR tilde
ENCODING 732
SWIDTH 754 0
DWIDTH 9 0
BBX 6 2 2 7
BITMAP
74
FC
ENDCHAR
STARTCHAR hungarumlaut
ENCODING 733
SWIDTH 754 0
DWIDTH 9 0
BBX 7 4 2 5
BITMAP
24
6E
D8
90
ENDCHAR
STARTCHAR endash
ENCODING 8211
SWIDTH 588 0
DWIDTH 7 0
BBX 6 2 0 2
BITMAP
FC
F8
ENDCHAR
STARTCHAR emdash
ENCODING 8212
SWIDTH 878 0
DWIDTH 11 0
BBX 10 2 0 2
BITMAP
FFC0
7000
ENDCHAR
STARTCHAR quoteleft
ENCODING 8216
SWIDTH 203 0
DWIDTH 2 0
BBX 3 4 1 5
BITMAP
60
C0
C0
40
ENDCHAR
STARTCHAR quoteright
ENCODING 8217
SWIDTH 199 0
DWIDTH 2 0
BBX 3 4 1 5
BITMAP
60
60
C0
80
ENDCHAR
STARTCHAR quotesinglbase
ENCODING 8218
SWIDTH 204 0
DWIDTH 2 0
BBX 2 4 -1 -2
BITMAP
40
40
C0
C0
ENDCHAR
STARTCHAR quotedblleft
ENCODING 8220
SWIDTH 410 0
DWIDTH 5 0
BBX 5 4 1 5
BITMAP
78
D8
D0
D0
ENDCHAR
STARTCHAR quotedblright
ENCODING 8221
SWIDTH 425 0
DWIDTH 5 0
BBX 5 4 1 5
BITMAP
68
78
F8
90
ENDCHAR
STARTCHAR quotedblbase
ENCODING 8222
SWIDTH 430 0
DWIDTH 5 0
BBX 5 4 -1 -2
BITMAP
50
58
D8
F0
ENDCHAR
STARTCHAR bullet
ENCODING 8226
SWIDTH 299 0
DWIDTH 4 0
BBX 3 3 0 2
BITMAP
40
E0
60
ENDCHAR
STARTCHAR ellipsis
ENCODING 8230
SWIDTH 768 0
DWIDTH 9 0
BBX 8 2 0 0
BITMAP
D9
DB
ENDCHAR
STARTCHAR perthousand
ENCODING 8240
SWIDTH 889 0
DWIDTH 11 0
BBX 11 9 0 0
BITMAP
2000
3300
5600
7C00
1800
3440
6EC0
4FE0
CCC0
ENDCHAR
STARTCHAR guilsinglleft
ENCODING 8249
SWIDTH 322 0
DWIDTH 4 0
BBX 4 5 0 0
BITMAP
30
60
C0
C0
60
ENDCHAR
STARTCHAR guilsinglright
ENCODING 8250
SWIDTH 341 0
DWIDTH 4 0
BBX 3 5 0 0
BITMAP
C0
60
20
E0
80
ENDCHAR
STARTCHAR fraction
ENCODING 8260
SWIDTH 541 0
DWIDTH 7 0
BBX 6 9 0 0
BITMAP
04
04
0C
18
30
60
60
C0
C0
ENDCHAR
STARTCHAR Euro
ENCODING 8364
SWIDTH 565 0
DWIDTH 7 0
BBX 6 7 0 0
BITMAP
0C
3C
70
F8
FC
7C
3C
ENDCHAR
STARTCHAR Delta
ENCODING 8710
SWIDTH 403 0
DWIDTH 5 0
BBX 6 7 0 0
BITMAP
7C
50
30
30
20
70
F0
ENDCHAR
STARTCHAR minus
ENCODING 8722
SWIDTH 548 0
DWIDTH 7 0
BBX 6 2 0 2
BITMAP
FC
F0
ENDCHAR
STARTCHAR approxequal
ENCODING 8776
SWIDTH 323 0
DWIDTH 4 0
BBX 3 9 1 0
BITMAP
40
C0
E0
C0
C0
C0
C0
C0
C0
ENDCHAR
STARTCHAR fi
ENCODING 64257
SWIDTH 810 0
DWIDTH 10 0
BBX 9 7 0 0
BITMAP
3E80
F180
6180
F980
F900
C100
C100
ENDCHAR
STARTCHAR fl
ENCODING 64258
SWIDTH 1012 0
DWIDTH 12 0
BBX 12 7 0 0
BITMAP
3F80
F180
6180
FB00
FB00
C3F0
C3F0
ENDCHAR
STARTCHAR .notdef
ENCODING -1
SWIDTH 370 0
DWIDTH 4 0
BBX 1 1 0 0
BITMAP
00
ENDCHAR
ENDFONT
